<svg width="20" height="16" viewBox="0 0 20 16" fill="none" xmlns="http://www.w3.org/2000/svg">
<path d="M3.636 14.364C2.80026 13.5283 2.13732 12.5361 1.68502 11.4442C1.23272 10.3522 0.999922 9.18189 0.999922 7.99999C0.999922 6.81808 1.23272 5.64775 1.68502 4.55581C2.13732 3.46387 2.80026 2.47172 3.636 1.63599M16.364 1.63599C17.1997 2.47172 17.8627 3.46387 18.315 4.55581C18.7673 5.64775 19.0001 6.81808 19.0001 7.99999C19.0001 9.18189 18.7673 10.3522 18.315 11.4442C17.8627 12.5361 17.1997 13.5283 16.364 14.364M6.464 11.535C5.52664 10.5973 5.00007 9.32581 5.00007 7.99999C5.00007 6.67417 5.52664 5.40262 6.464 4.46499M13.536 4.46499C14.4734 5.40262 14.9999 6.67417 14.9999 7.99999C14.9999 9.32581 14.4734 10.5973 13.536 11.535M11 7.99999C11 8.2652 10.8946 8.51956 10.7071 8.70709C10.5196 8.89463 10.2652 8.99999 10 8.99999C9.73478 8.99999 9.48043 8.89463 9.29289 8.70709C9.10536 8.51956 9 8.2652 9 7.99999C9 7.73477 9.10536 7.48042 9.29289 7.29288C9.48043 7.10534 9.73478 6.99999 10 6.99999C10.2652 6.99999 10.5196 7.10534 10.7071 7.29288C10.8946 7.48042 11 7.73477 11 7.99999Z" stroke="#006AFF" stroke-width="2" stroke-linecap="round" stroke-linejoin="round"/>
</svg>
